<?xml version="1.0" standalone="no"?>
<!DOCTYPE svg PUBLIC "-//W3C//DTD SVG 20010904//EN"
 "http://www.w3.org/TR/2001/REC-SVG-20010904/DTD/svg10.dtd">
<svg version="1.0" xmlns="http://www.w3.org/2000/svg"
 width="660.000000pt" height="410.000000pt" viewBox="0 0 660.000000 410.000000"
 preserveAspectRatio="xMidYMid meet">
<metadata>
Created by potrace 1.16, written by Peter Selinger 2001-2019
</metadata>
<g transform="translate(0.000000,410.000000) scale(0.100000,-0.100000)"
fill="#000000" stroke="none">
<path d="M120 2055 l0 -1935 353 0 c421 0 4711 0 5455 0 l522 0 0 1935 0 1935
-3165 0 -3165 0 0 -1935z m350 1760 l0 -145 -160 0 -160 0 0 145 0 145 160 0
160 0 0 -145z m350 0 l0 -145 -160 0 -160 0 0 145 0 145 160 0 160 0 0 -145z
m350 0 l0 -145 -160 0 -160 0 0 145 0 145 160 0 160 0 0 -145z m350 0 l0 -145
-160 0 -160 0 0 145 0 145 160 0 160 0 0 -145z m350 0 l0 -145 -160 0 -160 0
0 145 0 145 160 0 160 0 0 -145z m350 0 l0 -145 -160 0 -160 0 0 145 0 145
160 0 160 0 0 -145z m350 0 l0 -145 -160 0 -160 0 0 145 0 145 160 0 160 0 0
-145z m350 0 l0 -145 -160 0 -160 0 0 145 0 145 160 0 160 0 0 -145z m350 0
l0 -145 -160 0 -160 0 0 145 0 145 160 0 160 0 0 -145z m350 0 l0 -145 -160 0
-160 0 0 145 0 145 160 0 160 0 0 -145z m350 0 l0 -145 -160 0 -160 0 0 145 0
145 160 0 160 0 0 -145z m350 0 l0 -145 -160 0 -160 0 0 145 0 145 160 0 160
0 0 -145z m350 0 l0 -145 -160 0 -160 0 0 145 0 145 160 0 160 0 0 -145z m350
0 l0 -145 -160 0 -160 0 0 145 0 145 160 0 160 0 0 -145z m350 0 l0 -145 -160
0 -160 0 0 145 0 145 160 0 160 0 0 -145z m350 0 l0 -145 -160 0 -160 0 0 145
0 145 160 0 160 0 0 -145z m350 0 l0 -145 -160 0 -160 0 0 145 0 145 160 0
160 0 0 -145z m350 0 l0 -145 -160 0 -160 0 0 145 0 145 160 0 160 0 0 -145z
m-5950 -320 l0 -145 -160 0 -160 0 0 145 0 145 160 0 160 0 0 -145z m350 0 l0
-145 -160 0 -160 0 0 145 0 145 160 0 160 0 0 -145z m350 0 l0 -145 -160 0
-160 0 0 145 0 145 160 0 160 0 0 -145z m350 0 l0 -145 -160 0 -160 0 0 145 0
145 160 0 160 0 0 -145z m350 0 l0 -145 -160 0 -160 0 0 145 0 145 160 0 160
0 0 -145z m350 0 l0 -145 -160 0 -160 0 0 145 0 145 160 0 160 0 0 -145z m350
0 l0 -145 -160 0 -160 0 0 145 0 145 160 0 160 0 0 -145z m350 0 l0 -145 -160
0 -160 0 0 145 0 145 160 0 160 0 0 -145z m350 0 l0 -145 -160 0 -160 0 0 145
0 145 160 0 160 0 0 -145z m350 0 l0 -145 -160 0 -160 0 0 145 0 145 160 0
160 0 0 -145z m350 0 l0 -145 -160 0 -160 0 0 145 0 145 160 0 160 0 0 -145z
m350 0 l0 -145 -160 0 -160 0 0 145 0 145 160 0 160 0 0 -145z m350 0 l0 -145
-160 0 -160 0 0 145 0 145 160 0 160 0 0 -145z m350 0 l0 -145 -160 0 -160 0
0 145 0 145 160 0 160 0 0 -145z m350 0 l0 -145 -160 0 -160 0 0 145 0 145
160 0 160 0 0 -145z m350 0 l0 -145 -160 0 -160 0 0 145 0 145 160 0 160 0 0
-145z m350 0 l0 -145 -160 0 -160 0 0 145 0 145 160 0 160 0 0 -145z m350 0
l0 -145 -160 0 -160 0 0 145 0 145 160 0 160 0 0 -145z m-5950 -320 l0 -145
-160 0 -160 0 0 145 0 145 160 0 160 0 0 -145z m350 0 l0 -145 -160 0 -160 0
0 145 0 145 160 0 160 0 0 -145z m350 0 l0 -145 -160 0 -160 0 0 145 0 145
160 0 160 0 0 -145z m350 0 l0 -145 -160 0 -160 0 0 145 0 145 160 0 160 0 0
-145z m350 0 l0 -145 -160 0 -160 0 0 145 0 145 160 0 160 0 0 -145z m350 0
l0 -145 -160 0 -160 0 0 145 0 145 160 0 160 0 0 -145z m350 0 l0 -145 -160 0
-160 0 0 145 0 145 160 0 160 0 0 -145z m350 0 l0 -145 -160 0 -160 0 0 145 0
145 160 0 160 0 0 -145z m350 0 l0 -145 -160 0 -160 0 0 145 0 145 160 0 160
0 0 -145z m350 0 l0 -145 -160 0 -160 0 0 145 0 145 160 0 160 0 0 -145z m350
0 l0 -145 -160 0 -160 0 0 145 0 145 160 0 160 0 0 -145z m350 0 l0 -145 -160
0 -160 0 0 145 0 145 160 0 160 0 0 -145z m350 0 l0 -145 -160 0 -160 0 0 145
0 145 160 0 160 0 0 -145z m350 0 l0 -145 -160 0 -160 0 0 145 0 145 160 0
160 0 0 -145z m350 0 l0 -145 -160 0 -160 0 0 145 0 145 160 0 160 0 0 -145z
m350 0 l0 -145 -160 0 -160 0 0 145 0 145 160 0 160 0 0 -145z m350 0 l0 -145
-160 0 -160 0 0 145 0 145 160 0 160 0 0 -145z m350 0 l0 -145 -160 0 -160 0
0 145 0 145 160 0 160 0 0 -145z m-5950 -320 l0 -145 -160 0 -160 0 0 145 0
145 160 0 160 0 0 -145z m350 0 l0 -145 -160 0 -160 0 0 145 0 145 160 0 160
0 0 -145z m350 0 l0 -145 -160 0 -160 0 0 145 0 145 160 0 160 0 0 -145z m350
0 l0 -145 -160 0 -160 0 0 145 0 145 160 0 160 0 0 -145z m350 0 l0 -145 -160
0 -160 0 0 145 0 145 160 0 160 0 0 -145z m350 0 l0 -145 -160 0 -160 0 0 145
0 145 160 0 160 0 0 -145z m350 0 l0 -145 -160 0 -160 0 0 145 0 145 160 0
160 0 0 -145z m350 0 l0 -145 -160 0 -160 0 0 145 0 145 160 0 160 0 0 -145z
m350 0 l0 -145 -160 0 -160 0 0 145 0 145 160 0 160 0 0 -145z m350 0 l0 -145
-160 0 -160 0 0 145 0 145 160 0 160 0 0 -145z m350 0 l0 -145 -160 0 -160 0
0 145 0 145 160 0 160 0 0 -145z m350 0 l0 -145 -160 0 -160 0 0 145 0 145
160 0 160 0 0 -145z m350 0 l0 -145 -160 0 -160 0 0 145 0 145 160 0 160 0 0
-145z m350 0 l0 -145 -160 0 -160 0 0 145 0 145 160 0 160 0 0 -145z m350 0
l0 -145 -160 0 -160 0 0 145 0 145 160 0 160 0 0 -145z m350 0 l0 -145 -160 0
-160 0 0 145 0 145 160 0 160 0 0 -145z m350 0 l0 -145 -160 0 -160 0 0 145 0
145 160 0 160 0 0 -145z m350 0 l0 -145 -160 0 -160 0 0 145 0 145 160 0 160
0 0 -145z m-5950 -320 l0 -145 -160 0 -160 0 0 145 0 145 160 0 160 0 0 -145z
m350 0 l0 -145 -160 0 -160 0 0 145 0 145 160 0 160 0 0 -145z m350 0 l0 -145
-160 0 -160 0 0 145 0 145 160 0 160 0 0 -145z m350 0 l0 -145 -160 0 -160 0
0 145 0 145 160 0 160 0 0 -145z m350 0 l0 -145 -160 0 -160 0 0 145 0 145
160 0 160 0 0 -145z m350 0 l0 -145 -160 0 -160 0 0 145 0 145 160 0 160 0 0
-145z m350 0 l0 -145 -160 0 -160 0 0 145 0 145 160 0 160 0 0 -145z m350 0
l0 -145 -160 0 -160 0 0 145 0 145 160 0 160 0 0 -145z m350 0 l0 -145 -160 0
-160 0 0 145 0 145 160 0 160 0 0 -145z m350 0 l0 -145 -160 0 -160 0 0 145 0
145 160 0 160 0 0 -145z m350 0 l0 -145 -160 0 -160 0 0 145 0 145 160 0 160
0 0 -145z m350 0 l0 -145 -160 0 -160 0 0 145 0 145 160 0 160 0 0 -145z m350
0 l0 -145 -160 0 -160 0 0 145 0 145 160 0 160 0 0 -145z m350 0 l0 -145 -160
0 -160 0 0 145 0 145 160 0 160 0 0 -145z m350 0 l0 -145 -160 0 -160 0 0 145
0 145 160 0 160 0 0 -145z m350 0 l0 -145 -160 0 -160 0 0 145 0 145 160 0
160 0 0 -145z m350 0 l0 -145 -160 0 -160 0 0 145 0 145 160 0 160 0 0 -145z
m350 0 l0 -145 -160 0 -160 0 0 145 0 145 160 0 160 0 0 -145z m-5950 -320 l0
-145 -160 0 -160 0 0 145 0 145 160 0 160 0 0 -145z m350 0 l0 -145 -160 0
-160 0 0 145 0 145 160 0 160 0 0 -145z m350 0 l0 -145 -160 0 -160 0 0 145 0
145 160 0 160 0 0 -145z m350 0 l0 -145 -160 0 -160 0 0 145 0 145 160 0 160
0 0 -145z m350 0 l0 -145 -160 0 -160 0 0 145 0 145 160 0 160 0 0 -145z m350
0 l0 -145 -160 0 -160 0 0 145 0 145 160 0 160 0 0 -145z m350 0 l0 -145 -160
0 -160 0 0 145 0 145 160 0 160 0 0 -145z m350 0 l0 -145 -160 0 -160 0 0 145
0 145 160 0 160 0 0 -145z m350 0 l0 -145 -160 0 -160 0 0 145 0 145 160 0
160 0 0 -145z m350 0 l0 -145 -160 0 -160 0 0 145 0 145 160 0 160 0 0 -145z
m350 0 l0 -145 -160 0 -160 0 0 145 0 145 160 0 160 0 0 -145z m350 0 l0 -145
-160 0 -160 0 0 145 0 145 160 0 160 0 0 -145z m350 0 l0 -145 -160 0 -160 0
0 145 0 145 160 0 160 0 0 -145z m350 0 l0 -145 -160 0 -160 0 0 145 0 145
160 0 160 0 0 -145z m350 0 l0 -145 -160 0 -160 0 0 145 0 145 160 0 160 0 0
-145z m350 0 l0 -145 -160 0 -160 0 0 145 0 145 160 0 160 0 0 -145z m350 0
l0 -145 -160 0 -160 0 0 145 0 145 160 0 160 0 0 -145z m350 0 l0 -145 -160 0
-160 0 0 145 0 145 160 0 160 0 0 -145z m-5950 -320 l0 -145 -160 0 -160 0 0
145 0 145 160 0 160 0 0 -145z m350 0 l0 -145 -160 0 -160 0 0 145 0 145 160
0 160 0 0 -145z m350 0 l0 -145 -160 0 -160 0 0 145 0 145 160 0 160 0 0 -145z
m350 0 l0 -145 -160 0 -160 0 0 145 0 145 160 0 160 0 0 -145z m350 0 l0 -145
-160 0 -160 0 0 145 0 145 160 0 160 0 0 -145z m350 0 l0 -145 -160 0 -160 0
0 145 0 145 160 0 160 0 0 -145z m350 0 l0 -145 -160 0 -160 0 0 145 0 145
160 0 160 0 0 -145z m350 0 l0 -145 -160 0 -160 0 0 145 0 145 160 0 160 0 0
-145z m350 0 l0 -145 -160 0 -160 0 0 145 0 145 160 0 160 0 0 -145z m350 0
l0 -145 -160 0 -160 0 0 145 0 145 160 0 160 0 0 -145z m350 0 l0 -145 -160 0
-160 0 0 145 0 145 160 0 160 0 0 -145z m350 0 l0 -145 -160 0 -160 0 0 145 0
145 160 0 160 0 0 -145z m350 0 l0 -145 -160 0 -160 0 0 145 0 145 160 0 160
0 0 -145z m350 0 l0 -145 -160 0 -160 0 0 145 0 145 160 0 160 0 0 -145z m350
0 l0 -145 -160 0 -160 0 0 145 0 145 160 0 160 0 0 -145z m350 0 l0 -145 -160
0 -160 0 0 145 0 145 160 0 160 0 0 -145z m350 0 l0 -145 -160 0 -160 0 0 145
0 145 160 0 160 0 0 -145z m350 0 l0 -145 -160 0 -160 0 0 145 0 145 160 0
160 0 0 -145z m-5950 -320 l0 -145 -160 0 -160 0 0 145 0 145 160 0 160 0 0
-145z m350 0 l0 -145 -160 0 -160 0 0 145 0 145 160 0 160 0 0 -145z m350 0
l0 -145 -160 0 -160 0 0 145 0 145 160 0 160 0 0 -145z m350 0 l0 -145 -160 0
-160 0 0 145 0 145 160 0 160 0 0 -145z m350 0 l0 -145 -160 0 -160 0 0 145 0
145 160 0 160 0 0 -145z m350 0 l0 -145 -160 0 -160 0 0 145 0 145 160 0 160
0 0 -145z m350 0 l0 -145 -160 0 -160 0 0 145 0 145 160 0 160 0 0 -145z m350
0 l0 -145 -160 0 -160 0 0 145 0 145 160 0 160 0 0 -145z m350 0 l0 -145 -160
0 -160 0 0 145 0 145 160 0 160 0 0 -145z m350 0 l0 -145 -160 0 -160 0 0 145
0 145 160 0 160 0 0 -145z m350 0 l0 -145 -160 0 -160 0 0 145 0 145 160 0
160 0 0 -145z m350 0 l0 -145 -160 0 -160 0 0 145 0 145 160 0 160 0 0 -145z
m350 0 l0 -145 -160 0 -160 0 0 145 0 145 160 0 160 0 0 -145z m350 0 l0 -145
-160 0 -160 0 0 145 0 145 160 0 160 0 0 -145z m350 0 l0 -145 -160 0 -160 0
0 145 0 145 160 0 160 0 0 -145z m350 0 l0 -145 -160 0 -160 0 0 145 0 145
160 0 160 0 0 -145z m350 0 l0 -145 -160 0 -160 0 0 145 0 145 160 0 160 0 0
-145z m350 0 l0 -145 -160 0 -160 0 0 145 0 145 160 0 160 0 0 -145z m-5950
-320 l0 -145 -160 0 -160 0 0 145 0 145 160 0 160 0 0 -145z m350 0 l0 -145
-160 0 -160 0 0 145 0 145 160 0 160 0 0 -145z m350 0 l0 -145 -160 0 -160 0
0 145 0 145 160 0 160 0 0 -145z m350 0 l0 -145 -160 0 -160 0 0 145 0 145
160 0 160 0 0 -145z m350 0 l0 -145 -160 0 -160 0 0 145 0 145 160 0 160 0 0
-145z m350 0 l0 -145 -160 0 -160 0 0 145 0 145 160 0 160 0 0 -145z m350 0
l0 -145 -160 0 -160 0 0 145 0 145 160 0 160 0 0 -145z m350 0 l0 -145 -160 0
-160 0 0 145 0 145 160 0 160 0 0 -145z m350 0 l0 -145 -160 0 -160 0 0 145 0
145 160 0 160 0 0 -145z m350 0 l0 -145 -160 0 -160 0 0 145 0 145 160 0 160
0 0 -145z m350 0 l0 -145 -160 0 -160 0 0 145 0 145 160 0 160 0 0 -145z m350
0 l0 -145 -160 0 -160 0 0 145 0 145 160 0 160 0 0 -145z m350 0 l0 -145 -160
0 -160 0 0 145 0 145 160 0 160 0 0 -145z m350 0 l0 -145 -160 0 -160 0 0 145
0 145 160 0 160 0 0 -145z m350 0 l0 -145 -160 0 -160 0 0 145 0 145 160 0
160 0 0 -145z m350 0 l0 -145 -160 0 -160 0 0 145 0 145 160 0 160 0 0 -145z
m350 0 l0 -145 -160 0 -160 0 0 145 0 145 160 0 160 0 0 -145z m350 0 l0 -145
-160 0 -160 0 0 145 0 145 160 0 160 0 0 -145z m-5950 -320 l0 -145 -160 0
-160 0 0 145 0 145 160 0 160 0 0 -145z m350 0 l0 -145 -160 0 -160 0 0 145 0
145 160 0 160 0 0 -145z m350 0 l0 -145 -160 0 -160 0 0 145 0 145 160 0 160
0 0 -145z m350 0 l0 -145 -160 0 -160 0 0 145 0 145 160 0 160 0 0 -145z m350
0 l0 -145 -160 0 -160 0 0 145 0 145 160 0 160 0 0 -145z m350 0 l0 -145 -160
0 -160 0 0 145 0 145 160 0 160 0 0 -145z m350 0 l0 -145 -160 0 -160 0 0 145
0 145 160 0 160 0 0 -145z m350 0 l0 -145 -160 0 -160 0 0 145 0 145 160 0
160 0 0 -145z m350 0 l0 -145 -160 0 -160 0 0 145 0 145 160 0 160 0 0 -145z
m350 0 l0 -145 -160 0 -160 0 0 145 0 145 160 0 160 0 0 -145z m350 0 l0 -145
-160 0 -160 0 0 145 0 145 160 0 160 0 0 -145z m350 0 l0 -145 -160 0 -160 0
0 145 0 145 160 0 160 0 0 -145z m350 0 l0 -145 -160 0 -160 0 0 145 0 145
160 0 160 0 0 -145z m350 0 l0 -145 -160 0 -160 0 0 145 0 145 160 0 160 0 0
-145z m350 0 l0 -145 -160 0 -160 0 0 145 0 145 160 0 160 0 0 -145z m350 0
l0 -145 -160 0 -160 0 0 145 0 145 160 0 160 0 0 -145z m350 0 l0 -145 -160 0
-160 0 0 145 0 145 160 0 160 0 0 -145z m350 0 l0 -145 -160 0 -160 0 0 145 0
145 160 0 160 0 0 -145z m-5950 -320 l0 -145 -160 0 -160 0 0 145 0 145 160 0
160 0 0 -145z m350 0 l0 -145 -160 0 -160 0 0 145 0 145 160 0 160 0 0 -145z
m350 0 l0 -145 -160 0 -160 0 0 145 0 145 160 0 160 0 0 -145z m350 0 l0 -145
-160 0 -160 0 0 145 0 145 160 0 160 0 0 -145z m350 0 l0 -145 -160 0 -160 0
0 145 0 145 160 0 160 0 0 -145z m350 0 l0 -145 -160 0 -160 0 0 145 0 145
160 0 160 0 0 -145z m350 0 l0 -145 -160 0 -160 0 0 145 0 145 160 0 160 0 0
-145z m350 0 l0 -145 -160 0 -160 0 0 145 0 145 160 0 160 0 0 -145z m350 0
l0 -145 -160 0 -160 0 0 145 0 145 160 0 160 0 0 -145z m350 0 l0 -145 -160 0
-160 0 0 145 0 145 160 0 160 0 0 -145z m350 0 l0 -145 -160 0 -160 0 0 145 0
145 160 0 160 0 0 -145z m350 0 l0 -145 -160 0 -160 0 0 145 0 145 160 0 160
0 0 -145z m350 0 l0 -145 -160 0 -160 0 0 145 0 145 160 0 160 0 0 -145z m350
0 l0 -145 -160 0 -160 0 0 145 0 145 160 0 160 0 0 -145z m350 0 l0 -145 -160
0 -160 0 0 145 0 145 160 0 160 0 0 -145z m350 0 l0 -145 -160 0 -160 0 0 145
0 145 160 0 160 0 0 -145z m350 0 l0 -145 -160 0 -160 0 0 145 0 145 160 0
160 0 0 -145z m350 0 l0 -145 -160 0 -160 0 0 145 0 145 160 0 160 0 0 -145z
m-5950 -320 l0 -145 -160 0 -160 0 0 145 0 145 160 0 160 0 0 -145z m350 0 l0
-145 -160 0 -160 0 0 145 0 145 160 0 160 0 0 -145z m350 0 l0 -145 -160 0
-160 0 0 145 0 145 160 0 160 0 0 -145z m350 0 l0 -145 -160 0 -160 0 0 145 0
145 160 0 160 0 0 -145z m350 0 l0 -145 -160 0 -160 0 0 145 0 145 160 0 160
0 0 -145z m350 0 l0 -145 -160 0 -160 0 0 145 0 145 160 0 160 0 0 -145z m350
0 l0 -145 -160 0 -160 0 0 145 0 145 160 0 160 0 0 -145z m350 0 l0 -145 -160
0 -160 0 0 145 0 145 160 0 160 0 0 -145z m350 0 l0 -145 -160 0 -160 0 0 145
0 145 160 0 160 0 0 -145z m350 0 l0 -145 -160 0 -160 0 0 145 0 145 160 0
160 0 0 -145z m350 0 l0 -145 -160 0 -160 0 0 145 0 145 160 0 160 0 0 -145z
m350 0 l0 -145 -160 0 -160 0 0 145 0 145 160 0 160 0 0 -145z m350 0 l0 -145
-160 0 -160 0 0 145 0 145 160 0 160 0 0 -145z m350 0 l0 -145 -160 0 -160 0
0 145 0 145 160 0 160 0 0 -145z m350 0 l0 -145 -160 0 -160 0 0 145 0 145
160 0 160 0 0 -145z m350 0 l0 -145 -160 0 -160 0 0 145 0 145 160 0 160 0 0
-145z m350 0 l0 -145 -160 0 -160 0 0 145 0 145 160 0 160 0 0 -145z m350 0
l0 -145 -160 0 -160 0 0 145 0 145 160 0 160 0 0 -145z"/>
</g>
</svg>
